<?xml-stylesheet type="text/css" href="../covid-19.css" ?>
<svg id="africa_svg" width="209" height="262" viewBox="0 0 209 262" fill="none" xmlns="http://www.w3.org/2000/svg">
<path d="M202.713 179.473C202.713 179.473 200.422 185.041 199.766 185.532C199.11 186.023 193.215 191.588 191.742 192.571C190.268 193.557 188.629 194.7 188.138 195.848C187.647 196.995 185.521 200.269 185.847 200.925C186.173 201.577 187.647 203.381 187.647 204.198C187.647 205.016 185.521 208.454 185.03 210.258C184.538 212.058 183.556 219.426 184.047 220.409C184.538 221.391 186.173 226.794 187.977 227.45C189.777 228.107 198.127 215.661 199.11 213.367C200.092 211.075 199.275 210.093 200.584 209.111C201.896 208.128 203.369 195.683 203.861 194.209C204.352 192.736 205.987 191.918 206.152 191.262C206.317 190.606 204.843 179.964 204.513 179.473C204.187 178.982 204.352 178.164 202.713 179.473Z" fill="#F44A45"/>
<path d="M185.195 95.9628C185.195 95.9628 185.686 96.4541 187.651 97.6014C189.616 98.7452 192.072 96.619 194.202 96.7804C196.328 96.9453 205.174 94.3243 206.809 94.3243C208.447 94.3243 209.103 94.8436 208.447 97.9417C207.791 101.04 204.517 114.468 203.209 116.924C201.897 119.38 187.055 133.46 183.915 136.572C180.774 139.685 173.732 148.362 173.571 149.179C173.406 150 174.062 162.772 174.715 164.407C175.371 166.045 176.68 169.814 176.845 171.94C177.009 174.07 176.188 188.971 175.536 190.936C174.88 192.901 159.652 205.507 158.996 207.311C158.34 209.111 157.357 212.058 158.013 212.714C158.67 213.367 160.634 214.188 159.978 216.644C159.322 219.1 158.238 221.226 157.796 222.212C157.357 223.195 154.084 223.195 152.775 224.83C151.463 226.468 151.793 230.398 150.81 233.18C149.828 235.966 147.042 238.914 145.568 241.37C144.095 243.826 139.674 247.426 138.526 249.882C137.382 252.341 135.579 254.306 134.926 255.289C134.27 256.271 122.155 257.253 119.699 258.236C117.243 259.218 116.095 261.345 114.295 261.509C112.492 261.674 108.236 261.509 108.236 261.509C108.236 261.509 105.124 257.089 104.797 255.45C104.467 253.815 102.668 251.194 103.159 248.573C103.65 245.952 96.608 228.598 95.6256 226.468C94.6432 224.338 94.3168 211.076 94.1519 208.128C93.9905 205.181 88.0468 200.434 88.6433 198.469C89.2398 196.504 89.4047 189.297 89.731 187.659C90.0608 186.024 92.8432 179.873 93.6607 177.954C94.4818 176.034 94.6432 173.087 94.6432 171.449C94.6432 169.814 93.1695 168.01 93.1695 166.21C93.1695 164.407 93.3344 161.459 93.3344 160.968C93.3344 160.477 83.3452 145.249 82.3628 143.941C81.3803 142.632 81.2154 141.32 81.3804 139.193C81.5453 137.064 81.9242 134.278 81.3242 133.46C80.7242 132.643 80.7804 125.109 81.3242 123.636C81.8716 122.162 78.4331 118.232 78.4331 118.232L70.5736 117.25C70.5736 117.25 66.6439 112.173 65.8264 112.012C65.0053 111.847 62.058 111.355 61.2405 111.847C60.423 112.338 57.1459 113.32 56.1635 113.32H50.104C50.104 113.32 48.304 116.103 46.6655 116.433C45.0304 116.759 43.0656 117.085 43.0656 117.085L40.4446 115.45C40.4446 115.45 36.0236 114.629 34.3851 114.959C32.75 115.285 30.6203 116.594 29.9641 116.594C29.3115 116.594 27.0168 116.594 26.5256 116.433C26.0344 116.268 10.8067 102.022 9.498 100.057C8.18575 98.0926 3.2736 91.2156 3.1122 90.3946C2.9473 89.5771 2.29117 82.3737 2.29117 82.3737L0 80.4054C0 80.4054 0.491221 76.3142 0.817529 75.002C1.14384 73.6932 4.25603 68.6162 4.74725 67.7987C5.23846 66.9811 3.92972 65.3426 4.09463 64.5251C4.25603 63.704 5.89458 61.248 5.89458 61.248C5.89458 61.248 4.25604 55.8446 4.42095 54.2095C4.58585 52.571 4.09464 52.2412 5.07707 49.95C6.0595 47.6588 5.40337 40.1257 5.89458 39.1433C6.3858 38.1608 17.6838 28.6628 19.3223 28.3365C20.9574 28.0102 22.2696 25.5541 22.2696 25.5541C22.2696 25.5541 22.1047 21.4595 22.431 19.4946C22.7608 17.5298 30.1291 8.28792 31.4378 7.42126C32.75 6.55812 35.2061 3.11962 35.8587 3.11962H51.4162C52.8899 3.11962 55.8371 0.00742119 56.981 0.00742119C58.1283 0.00742119 84.1627 0.337235 84.8189 0.00742119C85.475 -0.318873 85.9662 10.1616 86.9486 10.323C87.9311 10.4879 92.0257 12.779 92.352 13.4352C92.6783 14.0913 93.4362 14.9088 93.6292 15.0737C93.8256 15.2351 100.173 16.3824 100.601 16.8737C101.029 17.3649 105.124 23.0946 105.124 23.0946C105.124 23.0946 111.509 23.0946 112.001 22.7682C112.492 22.4419 114.948 17.1999 115.439 16.5473C115.93 15.8912 117.404 15.8912 119.043 15.8912C120.681 15.8912 124.937 17.6912 125.593 17.6912C126.246 17.6912 126.576 22.277 126.902 22.7682C127.228 23.2595 129.193 20.4771 129.684 20.4771C130.176 20.4771 139.674 22.7682 140.821 23.2595C141.968 23.7507 152.505 34.3013 154.41 35.3539C156.319 36.403 161.452 50.7675 162.108 51.9148C162.761 53.0622 162.926 56.5007 162.926 56.5007C162.926 56.5007 165.708 58.4656 166.199 60.1041C166.69 61.7392 167.947 65.0689 168.603 66.3812C169.259 67.6899 170.294 71.4021 171.932 72.7108C173.571 74.0196 174.224 79.0966 174.88 80.0791C175.536 81.0615 175.697 84.8298 176.353 84.9912C177.009 85.1561 179.627 86.3035 180.609 87.121C181.592 87.9385 183.23 90.0683 184.213 90.8858C185.195 91.7068 185.195 95.9628 185.195 95.9628Z" fill="#F44A45"/>
</svg>
