<?xml-stylesheet type="text/css" href="../covid-19.css" ?>
<svg id="south_america_svg" width="143" height="258" viewBox="0 0 143 258" fill="none" xmlns="http://www.w3.org/2000/svg">
<path d="M61.7854 255.007C61.7854 255.007 57.8557 253.043 55.4523 251.951C53.0523 250.86 50.4313 248.895 50.4313 248.895C50.4313 248.895 49.1226 246.492 48.2489 246.274C47.3753 246.057 43.4456 248.674 43.4456 248.674L46.2841 255.007C46.2841 255.007 51.5225 256.755 52.6173 257.19C53.7085 257.628 61.7854 255.007 61.7854 255.007Z" fill="#F44A45"/>
<path d="M49.5601 240.38L47.8128 235.141C47.8128 235.141 53.7074 229.247 54.3635 227.061C55.0196 224.878 55.2372 218.328 55.2372 218.328L52.6162 215.054C52.6162 215.054 59.3844 205.012 59.823 203.265C60.2581 201.518 59.823 197.37 59.823 197.37C59.823 197.37 60.2581 196.279 61.7879 195.841C63.3141 195.405 65.4965 190.385 66.5913 189.072C67.6825 187.764 78.3804 183.616 78.8155 182.743C79.2541 181.869 79.6892 178.813 79.6892 178.813C79.6892 178.813 76.6331 171.824 77.7243 171.171C78.8155 170.515 83.8364 171.171 83.8364 171.171C83.8364 171.171 94.5344 160.252 99.1202 154.796C103.706 149.336 103.267 140.168 104.58 136.891C105.888 133.618 123.572 125.323 125.102 122.702C126.628 120.081 130.779 103.271 130.779 103.271C130.779 103.271 132.523 90.3906 133.179 88.4258C133.835 86.4609 140.821 83.6224 141.256 81.4365C141.695 79.2541 142.351 65.0615 142.351 65.0615C142.351 65.0615 130.779 62.0054 130.34 60.4791C129.905 58.9494 129.905 56.9845 128.814 55.8933C127.719 54.8021 115.495 53.2723 114.622 53.0548C113.748 52.8372 108.288 45.8549 108.288 45.8549C108.288 45.8549 98.4957 46.7356 96.9519 45.8549C95.408 44.9778 95.0817 43.0129 95.0817 43.0129C95.0817 43.0129 95.1905 36.6797 95.0817 35.1535C94.973 33.6237 86.2399 26.1993 83.8364 24.673C81.4365 23.1432 71.1736 19.2135 69.4263 17.6872C67.6825 16.1575 65.9351 10.0453 65.279 9.17167C64.6264 8.29801 45.4129 6.11564 44.7567 5.67704C44.1006 5.24196 37.9885 2.18589 37.9885 2.18589C37.9885 2.18589 34.9324 5.67702 33.8412 5.02441C32.75 4.36828 31.8764 -2.61013e-05 31.0027 -2.61013e-05C30.129 -2.61013e-05 24.6695 3.27711 24.6695 3.27711C24.6695 3.27711 20.0872 4.36828 18.996 5.45949C17.9013 6.55069 15.7189 11.5716 14.6277 12.0102C13.5365 12.4453 10.698 13.1014 10.698 13.1014C10.698 13.1014 9.38923 16.8136 9.82431 17.6872C10.2629 18.5609 12.4453 22.7082 12.4453 22.7082C12.4453 22.7082 12.0067 31.4413 11.3541 32.0974C10.698 32.75 1.74732 44.7708 1.52978 45.8549C1.30874 46.9426 1.52978 50.6548 1.52978 50.6548C1.52978 50.6548 5.02092 53.7109 4.14726 55.8933C3.2736 58.0757 0 61.3528 0 62.6615C0 63.9703 4.58585 70.521 5.67705 71.1771C6.76825 71.8297 6.98578 80.5628 7.64191 81.4365C8.29803 82.3101 17.6838 95.4116 18.775 96.2852C19.8661 97.1589 33.6237 108.727 34.0588 111.13C34.4973 113.53 36.6797 124.011 35.5885 130.779C34.4973 137.547 33.1851 146.28 32.3114 148.901C31.4378 151.519 32.0939 174.701 31.6588 176.648C31.2202 178.592 30.7852 181.651 30.129 182.304C29.4729 182.96 30.3466 199.118 30.7852 201.735C31.2202 204.356 32.0939 211.998 30.7852 214.398C29.4729 216.801 28.5993 221.166 28.8203 222.478C29.0378 223.787 31.2202 229.899 31.4378 230.773C31.6588 231.647 31.8764 235.359 31.8764 235.359L35.8061 238.415L36.6798 243.436C36.6798 243.436 41.0445 244.527 42.1357 244.745C43.2269 244.966 43.448 242.562 43.448 242.562C43.448 242.562 45.4129 243.653 47.8128 243.001C50.2162 242.345 49.5601 240.38 49.5601 240.38Z" fill="#F44A45"/>
</svg>
