<?xml-stylesheet type="text/css" href="../css/style.css" ?>
<svg id="australia_svg" width="142" height="116" viewBox="0 0 142 116" fill="none" xmlns="http://www.w3.org/2000/svg">
<path d="M1.04637 82.7266C1.04637 82.7266 -1.30796 82.7266 1.04637 70.948C3.40069 59.1658 3.40069 41.1032 8.11285 35.6051C12.825 30.1105 28.5334 23.8264 40.312 17.5459C52.0942 11.2618 59.1607 3.40939 63.8728 3.40939C68.585 3.40939 67.0131 10.4759 73.2971 3.40939C79.5812 -3.66061 80.3636 2.62344 86.6477 3.40939L92.9317 4.19183C92.9317 4.19183 91.3598 10.4759 92.9317 14.4021C94.5001 18.3283 96.8579 19.1142 102.353 17.5459C107.851 15.974 114.921 1.4726 117.275 0.0866755C119.633 -1.30277 122.773 14.4021 124.345 19.9002C125.913 25.3983 136.91 39.5348 140.836 47.3872C144.762 55.2396 115.703 91.365 109.423 92.9369C103.138 94.5053 84.2898 91.365 81.1496 92.9369C78.0093 94.5053 71.041 78.8004 70.5989 77.2285C70.1569 75.6602 66.2271 78.0145 66.2271 78.0145C66.2271 78.0145 56.8063 70.948 50.5223 71.7304C44.2382 72.5164 32.4596 78.8004 28.5334 79.5864C24.6072 80.3723 14.3969 79.5864 14.3969 79.5864L8.89879 84.2985L1.04637 82.7266Z" fill="#F44A45"/>
<path d="M83.2464 115.188C83.2464 115.188 84.8183 108.904 85.3411 105.764C85.8639 102.623 91.6252 101.574 91.6252 101.574C91.6252 101.574 93.1935 107.858 91.6252 110.999C90.0533 114.142 83.2464 115.188 83.2464 115.188Z" fill="#F44A45"/>
</svg>
