<?xml-stylesheet type="text/css" href="../css/style.css" ?>
<svg id="eurasia_svg" width="551" height="323" viewBox="0 0 551 323" fill="none" xmlns="http://www.w3.org/2000/svg">
<path d="M274.413 290.08V297.614C274.413 299.249 279.185 302.663 279.42 303.084C279.651 303.508 280.964 296.301 280.964 294.993C280.964 293.684 274.413 287.789 274.413 290.08Z" fill="#F44A45"/>
<path d="M101.989 190.932C101.989 190.932 104.2 191.504 104.936 191.749C105.673 191.995 108.62 193.223 108.294 193.553C107.964 193.879 104.61 194.044 104.28 194.044C103.954 194.044 101.908 194.697 101.498 194.044C101.087 193.388 99.533 190.686 99.8593 190.932C100.189 191.177 100.989 190.669 101.989 190.932Z" fill="#F44A45"/>
<path d="M69.8985 180.534C69.8985 180.534 72.9265 182.173 73.9089 182.418C74.8914 182.664 75.958 184.464 76.4492 185.201C76.9404 185.938 74.4001 185.12 73.9089 184.79C73.4177 184.464 71.2072 184.299 70.4704 183.727C69.7336 183.155 69.1266 180.127 69.8985 180.534Z" fill="#F44A45"/>
<path d="M57.4511 170.629C57.4511 170.629 58.844 171.937 59.251 172.429C59.6615 172.92 58.6791 175.706 59.251 176.604C59.8265 177.506 58.4546 179.635 58.4019 179.144C58.3528 178.653 56.7143 176.769 56.0581 175.622C55.4055 174.478 55.2406 173.822 55.4055 172.674C55.5669 171.53 56.6581 169.867 57.4511 170.629Z" fill="#F44A45"/>
<path d="M55.8146 163.505C55.8146 163.505 54.7515 165.143 55.8146 165.796C56.8777 166.452 58.6812 167.435 58.6812 167.435C58.6812 167.435 58.8426 166.533 58.6812 165.47C58.5163 164.407 56.2848 162.115 55.8146 163.505Z" fill="#F44A45"/>
<path d="M41.4879 173.493C41.4879 173.493 42.2247 174.682 42.7159 174.826C43.2071 174.967 44.3544 174.251 44.7615 174.16C45.172 174.065 43.1264 173.082 43.1264 172.837C43.1264 172.591 41.4879 173.493 41.4879 173.493Z" fill="#F44A45"/>
<path d="M35.183 175.786C35.183 175.786 35.5935 175.256 36.7373 174.824C37.8847 174.393 39.2776 174.477 39.6846 174.393C40.0951 174.312 39.7688 175.13 39.032 175.786C38.2952 176.442 37.3127 177.34 35.8391 177.505C34.3654 177.67 34.1198 178.323 34.3654 177.67C34.6111 177.014 34.2216 176.481 35.183 175.786Z" fill="#F44A45"/>
<path d="M15.0427 130.375C15.0427 130.375 15.5901 128.41 16.5725 126.771C17.555 125.136 17.1164 120.441 17.4427 119.677C17.7725 118.912 20.7198 114.656 20.8286 114.326C20.9373 114 13.6252 107.231 13.2954 106.249C12.9691 105.266 13.513 102.319 13.9515 101.228C14.3866 100.137 17.1164 94.786 17.6637 94.5684C18.2076 94.3509 19.8461 94.5684 19.8461 94.5684C19.8461 94.5684 20.5023 96.6421 21.3759 97.1894C22.2461 97.7333 24.3232 98.4982 24.8671 99.0455C25.4144 99.5894 25.9583 106.796 26.1758 107.449C26.3968 108.105 30.2178 116.073 30.6529 116.294C31.0915 116.512 35.565 120.003 35.6738 120.441C35.7826 120.877 34.6914 127.645 34.1475 127.975C33.6002 128.301 28.5792 129.718 28.0319 129.827C27.488 129.939 26.3968 131.031 25.1934 131.248C23.9934 131.466 15.0427 130.375 15.0427 130.375Z" fill="#F44A45"/>
<path d="M0.193367 120.004C0.193367 120.004 1.61087 114.875 2.48454 113.783C3.3582 112.689 5.97918 110.724 6.96161 110.289C7.94404 109.854 13.3123 108.759 13.193 109.306C13.0737 109.854 12.6387 113.453 12.6387 114.001C12.6387 114.545 13.9474 117.166 13.8386 117.931C13.7299 118.695 11.1089 123.169 10.1264 123.825C9.14401 124.481 2.15823 126.116 1.94069 125.464C1.72315 124.808 1.39334 122.625 1.39334 122.625C1.39334 122.625 0.628444 121.752 0.193367 121.422C-0.241709 121.095 0.193367 120.004 0.193367 120.004Z" fill="#F44A45"/>
<path d="M13.193 93.9127C13.193 93.9127 11.3264 95.8109 11.0001 96.3899C10.6738 96.9688 10.0177 99.2635 10.344 99.1512C10.6738 99.0424 11.765 98.3898 12.5299 97.9512C13.2913 97.5162 13.6351 95.7688 13.8456 95.3302C14.0562 94.8952 13.193 93.9127 13.193 93.9127Z" fill="#F44A45"/>
<path d="M27.3769 84.0889C27.3769 84.0889 25.412 86.1625 25.0857 86.9274C24.7559 87.6923 23.791 89.2186 24.4366 89.3273C25.0857 89.4396 27.2681 88.0186 27.3769 87.9098C27.4856 87.8011 27.7032 87.6958 28.2505 86.7134C28.7944 85.7274 27.3769 84.0889 27.3769 84.0889Z" fill="#F44A45"/>
<path d="M169.07 28.8523C169.07 28.8523 170.27 23.9401 171.47 22.5191C172.674 21.1016 180.316 10.7299 181.077 10.5124C181.842 10.2949 184.681 8.87386 186.102 8.33001C187.519 7.78266 186.102 13.786 186.102 13.786C186.102 13.786 186.537 13.8983 187.519 13.6772C188.502 13.4597 190.466 13.1334 190.466 13.786V17.1719C190.466 17.1719 181.733 23.5016 181.625 24.1577C181.516 24.8138 181.186 30.5996 181.186 30.5996C181.625 32.1259 183.263 35.6205 183.263 36.1679C183.263 36.7117 183.154 38.8941 183.154 38.8941C183.154 38.8941 178.677 37.6942 177.695 37.2591C176.712 36.8205 173.765 32.3469 173.218 32.1259C172.674 31.9084 170.818 30.8172 170.27 30.3821C169.727 29.9435 169.07 28.8523 169.07 28.8523Z" fill="#F44A45"/>
<path d="M190.469 7.45586C190.469 7.45586 189.269 8.65583 188.83 9.52949C188.395 10.4032 190.469 11.3856 191.451 12.0417C192.434 12.6943 194.29 12.5856 195.055 12.0417C195.82 11.4944 199.093 8.29444 199.093 8.29444C198.985 7.56463 196.146 6.36466 195.164 6.36466C194.181 6.36466 190.469 7.45586 190.469 7.45586Z" fill="#F44A45"/>
<path d="M205 3.41658C205 3.41658 199.513 4.39901 199.106 5.05513C198.699 5.70775 202.969 7.45507 203.983 7.45507C205 7.45507 206.425 7.78489 207.642 7.45507C208.863 7.12876 210.895 4.50778 210.895 4.50778C210.895 4.50778 207.818 2.83764 205 3.41658" fill="#F44A45"/>
<path d="M360.249 255.604L364.67 251.846H368.866V255.604L364.557 258.699H363.649L360.249 255.604Z" fill="#F44A45"/>
<path d="M394.644 242.344L396.49 236.597L398.479 233.948L400.69 232.842L403.342 237.593L398.992 242.344V244.554L394.644 245.439V242.344Z" fill="#F44A45"/>
<path d="M534.659 58.7634C533.35 57.4547 507.151 45.8831 506.277 45.662C505.404 45.4445 492.085 42.6059 491.432 43.4796C490.776 44.3533 490.338 48.0655 489.467 47.8479C488.594 47.6304 487.064 46.9743 487.064 46.9743L485.317 45.0094C485.317 45.0094 472.871 45.4445 471.563 45.4445C470.254 45.4445 467.633 48.0654 466.542 48.0654C465.45 48.0654 458.9 39.9885 457.809 39.7674C456.717 39.5499 438.104 38.8973 437.914 38.6762C437.721 38.4587 437.069 35.8377 435.539 35.4026C434.009 34.964 419.381 29.508 417.855 29.508H403.006C401.48 29.508 399.515 34.0939 399.515 34.0939C399.515 34.0939 385.323 34.529 384.014 34.7465C382.705 34.964 382.049 35.8377 380.958 35.8377C379.867 35.8377 372.877 25.3608 371.351 24.9222C369.821 24.4871 362.179 23.6134 360.215 23.831C358.25 24.0485 356.506 25.7959 354.976 25.5783C353.446 25.3608 348.864 26.0134 347.552 25.1397C346.243 24.2661 344.496 24.4169 343.187 23.7959C341.878 23.1749 331.398 22.9573 330.307 22.7398C329.215 22.5223 327.468 20.3363 326.156 20.5574C324.847 20.7749 319.388 23.831 318.514 23.6135C317.644 23.3959 321.573 20.5398 321.573 20.5398C321.573 20.5398 328.342 15.9715 328.777 14.2242C329.215 12.4769 326.156 10.2945 325.065 8.76822C323.973 7.23844 321.574 5.92969 320.261 5.70864C318.953 5.49111 312.402 4.83498 310.219 3.96482C308.037 3.09116 306.507 0.687721 304.76 0.252644C303.013 -0.185941 300.83 0.0351058 298.865 0.252644C296.9 0.470182 292.536 5.49111 291.444 5.70864C290.35 5.92969 277.034 7.02089 276.161 7.02089C275.287 7.02089 269.61 11.3857 267.863 11.6032C266.119 11.8243 261.968 13.3506 260.659 14.6628C259.351 15.9715 258.038 20.7749 256.291 20.7749C254.547 20.7749 249.305 20.3363 248.214 21.6486C247.123 22.9573 244.502 23.831 245.814 24.7047C247.123 25.5783 254.547 30.8168 253.452 31.2553C252.361 31.6904 248.589 29.9431 245.453 29.0694C242.319 28.1993 239.698 27.9782 239.046 28.4168C238.39 28.8519 237.298 32.129 235.986 31.908C234.677 31.6904 233.804 26.2344 232.93 26.0134C232.056 25.7959 229.439 26.887 229.439 29.7256C229.439 32.5641 231.404 37.1499 232.713 40.206C234.021 43.2621 237.955 45.4445 239.919 46.1006C241.884 46.7567 243.193 49.1567 242.102 49.5952C241.011 50.0303 237.081 49.3742 236.425 49.8128C235.769 50.2478 232.93 56.3635 230.965 57.2336C229 58.1073 225.288 58.7634 225.727 58.1073C226.162 57.4547 229.439 51.9952 229.221 48.5005C229 45.0094 226.965 40.206 225.692 37.585C224.418 34.964 226.092 31.4729 225.692 28.8519C225.288 26.2344 218.302 26.2344 216.12 27.1046C213.938 27.9782 211.534 31.4729 211.099 33.6553C210.661 35.8377 213.72 41.2972 215.903 43.4796C218.085 45.662 216.776 47.8479 215.685 47.8479C214.59 47.8479 207.822 42.1709 203.892 40.206C199.963 38.2411 194.724 38.4587 192.759 38.6762C190.794 38.8973 189.921 42.1709 191.451 41.9533C192.977 41.7323 196.689 45.0094 196.689 45.662C196.689 46.3181 182.717 46.7567 180.753 47.1918C178.788 47.6304 176.384 46.3181 175.728 46.1006C175.076 45.8831 159.136 56.581 158.262 56.3635C157.392 56.1424 157.171 50.4654 156.953 49.5952C156.736 48.7216 153.241 47.4093 152.588 47.1918C151.932 46.9742 151.715 50.6864 151.497 52.2127C151.276 53.7425 147.564 57.2336 147.564 57.2336L141.452 62.4756C141.452 62.4756 143.199 65.9667 141.452 65.9667C139.704 65.9667 134.901 63.1317 133.375 63.1317C131.845 63.1317 133.81 67.7948 133.375 68.0825C132.936 68.3702 130.754 68.0825 130.754 68.0825C130.754 68.0825 123.551 57.4547 124.424 56.581C125.298 55.7074 130.971 55.9249 132.063 57.4547C133.157 58.981 131.845 59.4195 133.157 58.9809C134.466 58.5459 139.487 57.8898 139.487 57.8898C139.487 57.8898 142.543 54.6161 142.543 53.7425C142.543 52.8688 121.147 39.1148 119.838 38.6762C118.53 38.2412 119.4 39.1148 116.565 39.1148C113.726 39.1148 112.632 38.8973 112.632 38.8973C112.632 38.8973 111.761 39.1148 112.632 37.1499C113.505 35.1851 107.393 32.3465 106.737 32.129C106.084 31.908 101.498 34.0939 100.842 34.0939C100.19 34.0939 96.9126 33.4378 96.9126 33.4378L89.0251 37.3675C89.0251 37.3675 83.8147 38.2412 82.9411 39.1148C82.0674 39.9885 77.9202 40.206 77.264 40.8621C76.6079 41.5147 70.0607 46.5357 71.5869 47.1918C73.1167 47.8479 72.6782 51.5601 72.6782 51.5601C72.6782 51.5601 58.7066 67.279 56.7417 69.0263C54.7768 70.7701 47.135 77.5384 46.9174 78.6296C46.6999 79.7243 44.735 82.7803 45.8262 83.433C46.9174 84.0891 48.8823 85.3978 48.8823 86.2715C48.8823 87.1451 49.756 95.2256 50.6296 95.4432C51.5033 95.6607 54.7768 95.8783 54.7768 95.8783C54.7768 95.8783 59.3627 93.0397 60.0153 93.0397C60.6715 93.0397 63.8433 100.682 64.5485 101.773C65.2573 102.864 65.4749 107.232 65.4749 107.232L68.9695 108.759C68.9695 108.759 74.8641 107.45 76.3903 106.576C77.9201 105.703 77.7026 98.9343 77.7026 97.8431C77.7026 96.7519 84.0323 90.8573 84.2498 89.7661C84.4709 88.6749 81.6323 81.4681 81.4113 80.3769C81.1937 79.2857 82.2849 74.2648 83.3761 73.1736C84.4708 72.0824 86.6532 72.0824 87.7444 70.7701C88.8356 69.4614 93.4215 63.1317 94.5127 62.2581C95.6039 61.3844 99.7511 60.9458 99.7511 60.9458C99.7511 60.9458 101.716 63.7843 100.407 64.4405C99.0985 65.0966 93.2004 69.2438 92.7654 70.335C92.3303 71.4262 88.6181 82.1242 89.9268 83.433C91.2356 84.7452 95.1688 87.8013 97.3512 88.2363C99.5336 88.6749 106.519 86.2715 108.702 86.7101C110.888 87.1451 113.505 89.11 113.505 89.11C113.505 89.11 105.428 90.2012 103.898 90.8573C102.372 91.5135 99.7511 92.1661 99.7511 92.1661C99.7511 92.1661 99.0985 100.247 98.0038 100.247C96.9126 100.247 92.5478 101.99 92.5478 101.99C92.5478 101.99 88.6181 111.38 87.5269 111.818C86.4357 112.253 63.51 112.909 61.5451 112.253L60.4539 100.899C60.4539 100.899 57.1768 102.864 56.5242 103.738C55.8681 104.611 55.433 113.127 54.5593 113.783C53.6857 114.436 45.8227 119.022 45.4964 119.895C45.1701 120.769 34.9072 134.088 33.1634 133.867C31.4161 133.649 26.1741 132.776 25.739 134.088C25.3039 135.397 24.8654 137.579 23.5566 138.235C22.2444 138.888 16.1323 140.2 16.1323 140.2C16.1323 140.2 17.441 141.947 18.3146 142.165C19.1883 142.382 21.1532 142.165 21.1532 142.165C21.1532 142.165 24.8653 148.277 25.739 148.933C26.6127 149.589 25.5215 157.449 25.3039 158.101C25.0829 158.757 20.7181 158.101 19.4093 158.101C18.0971 158.101 13.9498 157.01 13.9498 157.01C13.9498 157.01 5.43429 159.631 4.34309 159.849C3.25189 160.066 1.28699 162.031 2.16065 163.122C3.03432 164.217 4.34309 166.182 4.34309 166.182L3.03434 170.985L0.195801 177.097C0.195801 177.097 4.12556 183.209 5.4343 184.518C6.74304 185.83 22.0268 184.083 22.9005 184.518C23.7742 184.957 29.6687 178.845 30.3249 177.971C30.9775 177.097 30.3249 170.764 30.3249 170.764C30.3249 170.764 38.8404 166.182 39.9316 164.652C41.0228 163.122 41.0228 159.631 41.0228 159.631C41.0228 159.631 51.0647 160.066 52.3734 159.849C53.6857 159.631 59.1417 158.975 59.1417 158.975C59.1417 158.975 65.6923 166.617 67.2221 168.147C68.7484 169.673 77.9201 174.694 77.9201 174.694C77.9201 174.694 80.1025 180.371 80.5376 179.497C80.9762 178.623 80.9762 173.603 80.9762 173.603C80.9762 173.603 81.4113 173.82 82.7235 173.385C84.0323 172.95 70.9343 164.434 70.0607 162.031C69.187 159.631 67.6572 155.701 67.6572 155.701C67.6572 155.701 82.9411 163.122 84.2498 165.308C85.5621 167.49 85.341 175.35 86.4357 175.785C87.5269 176.224 90.5829 179.936 91.018 181.027C91.4566 182.118 93.2004 186.486 94.2951 186.704C95.3863 186.922 97.7863 188.23 97.7863 188.23C97.7863 188.23 102.807 182.992 102.807 182.336C102.807 181.683 99.3161 177.532 98.8775 176.441C98.4424 175.35 106.084 172.076 107.832 171.855C109.575 171.638 113.07 173.167 113.07 173.167C113.07 173.167 107.176 177.753 108.484 179.062C109.797 180.371 112.414 189.321 114.161 189.542C115.909 189.76 132.936 188.23 134.248 189.542C135.557 190.851 136.213 192.49 136.213 192.49C136.213 192.49 135.231 208.535 131.301 208.535C127.371 208.535 119.512 208.865 121.147 209.517C122.786 210.174 127.336 217.166 133.375 220.324C137.087 222.268 146.624 238.738 146.953 241.685C147.28 244.632 160.774 274.688 163.395 276C166.013 277.309 193.85 264.863 196.798 263.555C199.745 262.246 210.225 247.18 210.225 245.541C210.225 243.906 203.022 231.461 202.366 230.478C201.71 229.496 190.577 235.717 188.612 235.064C186.647 234.408 176.493 216.068 177.805 215.412C179.114 214.759 184.352 217.707 184.352 217.707C184.352 217.707 189.265 226.875 190.903 227.201C192.542 227.531 202.366 225.236 203.675 225.566C204.987 225.892 205.64 231.461 207.605 231.461C208.734 231.461 215.488 231.791 221.278 232.226L233.344 218.465V206.767V200.798V190.855L243.951 185.5L251.909 177.953L256.326 170.434V151.41V140.674L265.168 135.958L274.413 134.67L277.687 124.653V109.155L284.613 99.1589H290.799H298.757V103.548L308.479 112.874H313.784L321.623 117.93H333.229L343.836 124.653L352.025 125.614L360.25 130.825H370.706L379.509 125.614L384.481 117.93L389.459 112.874V109.155L384.481 96.5344L375.66 94.4713L374.776 86.7136L379.509 80.5664H384.481L389.459 70.9912H398.993L404.378 76.8893H411.838L423.36 86.7136L431.388 89.3346H441.707L444.248 97.187C449.437 96.7028 455.952 96.3414 456.5 96.7519C457.37 97.408 458.9 100.026 461.082 100.247C463.268 100.464 468.724 96.394 470.254 96.573C471.78 96.7519 468.068 93.0397 468.068 93.0397C468.068 93.0397 471.78 87.8013 473.31 87.8013C474.836 87.8013 477.022 89.7661 478.548 90.4223C480.078 91.0749 487.72 84.5277 487.72 84.5277C487.72 84.5277 489.029 86.0539 489.029 86.7101C489.029 87.3627 480.731 100.247 478.987 101.338C477.24 102.429 474.619 105.05 474.619 105.05C474.619 105.05 472.871 115.092 473.745 116.839C474.619 118.586 482.261 137.796 483.352 136.053C484.443 134.305 490.559 123.607 490.994 122.078C491.432 120.551 489.685 118.586 490.994 116.622C492.302 114.657 495.362 112.692 495.362 111.38C495.362 110.071 493.615 105.703 493.397 103.959C493.176 102.211 490.776 100.899 490.776 100.899C490.776 100.899 491.432 96.3168 493.615 95.8783C495.797 95.4432 496.236 93.6958 500.165 93.4783C504.095 93.2608 506.06 93.0397 506.06 93.0397C506.06 93.0397 509.334 94.5695 510.207 94.5695C511.081 94.5695 515.663 85.3978 516.975 85.6189C518.284 85.8364 521.561 86.4925 522.431 86.0539C523.305 85.6189 526.144 84.5277 526.144 84.5277C526.144 84.5277 529.638 83.654 529.638 82.3418C529.638 81.033 526.361 74.4823 525.27 74.0472C524.179 73.6087 522.653 72.0824 522.653 72.0824C522.653 72.0824 524.396 70.1175 525.27 69.6789C526.144 69.2439 526.582 65.9667 526.582 65.9667C526.582 65.9667 528.109 64.4405 529.638 65.9667C531.165 67.4965 542.519 75.356 545.575 75.7946L548.631 76.2296V70.7701C548.631 69.6789 550.378 66.6229 550.378 66.6229C550.378 66.6229 535.968 60.0722 534.659 58.7634" fill="#F44A45"/>
<path d="M431.389 89.3347L423.361 86.7102L411.838 76.8894H404.379L398.993 70.9878H389.46L384.481 80.5665H379.509L374.776 86.7102L375.66 94.4714L384.481 96.5345L389.46 109.155V112.874L384.481 117.927L379.509 125.614L370.706 130.821H360.247L352.026 125.614L343.836 124.653L333.23 117.927H321.623L313.785 112.874H308.48L298.757 103.548V99.1555H290.799H284.613L277.687 109.155V124.653L274.414 134.667L265.165 135.958L256.326 140.674V151.407V170.434L251.906 177.953L243.951 185.501L233.345 190.855V200.799V206.767V218.461L221.278 232.222C225.562 232.545 229.317 232.924 229.875 233.268C231.183 234.078 241.337 243.903 241.337 243.903L238.716 245.868C238.716 245.868 242.32 250.127 243.958 250.453C245.593 250.783 251.818 248.162 251.818 248.162C251.818 248.162 253.783 262.572 254.109 263.881C254.435 265.19 263.607 293.684 266.554 293.354C269.502 293.028 272.449 287.459 274.087 283.53C275.722 279.6 274.74 270.758 276.379 268.467C278.017 266.172 282.929 266.172 283.582 264.207C284.238 262.243 287.185 255.366 287.185 255.366C287.185 255.366 295.375 254.383 295.701 253.074C296.027 251.766 297.339 247.836 297.339 247.836L306.508 243.903C306.508 243.903 308.799 251.436 310.437 251.766C312.076 252.092 318.627 258.313 318.627 258.313C318.627 258.313 316.988 267.485 317.97 267.811C318.953 268.137 327.795 267.155 327.795 267.155C327.795 267.155 330.525 278.509 328.668 280.365C328.668 280.365 330.307 293.793 331.507 296.631C332.707 299.47 338.384 304.708 339.258 306.999C340.131 309.294 339.258 313.768 341.005 315.732C342.749 317.697 348.426 321.739 349.847 322.392C351.264 323.048 350.608 318.245 350.829 316.936C351.047 315.624 349.191 316.171 349.191 312.785C349.191 309.403 349.082 308.855 348.535 307.329C347.991 305.799 339.247 297.284 337.995 296.301C336.745 295.319 334.998 293.137 334.672 291.937C334.346 290.737 334.454 284.951 334.454 283.751C334.454 282.547 337.826 278.291 337.995 278.291C338.166 278.291 344.387 285.716 345.696 286.698C347.008 287.681 349.956 294.993 351.373 295.431C352.794 295.866 361.854 285.495 362.945 283.421C364.036 281.347 365.018 272.07 362.945 269.993C360.871 267.92 355.741 265.081 355.194 262.681C354.65 260.278 352.903 256.13 353.994 254.492C355.085 252.857 359.124 249.801 359.997 249.58C360.871 249.362 364.257 251.766 365.348 251.653C366.439 251.545 368.948 250.671 370.26 250.453C371.569 250.236 383.141 244.559 385.541 241.72C387.944 238.882 397.768 223.819 397.442 221.416C397.442 221.416 394.544 217.051 395.228 215.739C395.912 214.43 397.449 211.156 397.449 211.156L388.379 198.385C388.379 198.385 396.509 191.178 395.228 189.869C393.947 188.56 378.829 187.904 379.509 186.266C380.193 184.627 386.744 175.785 387.727 175.785C388.709 175.785 390.344 182.662 390.344 182.662C390.344 182.662 398.533 180.697 399.842 181.68C401.154 182.662 401.154 187.904 402.133 189.869C403.119 191.834 407.049 201.332 408.684 201.002C410.322 200.676 411.631 196.09 415.235 195.764C418.838 195.437 415.235 188.56 415.235 185.609C415.235 182.662 410.322 181.68 410.979 178.08C411.631 174.476 414.579 167.926 419.164 167.273C423.75 166.617 429.645 161.705 432.592 157.775C435.539 153.845 439.143 140.091 437.504 134.849C435.866 129.611 435.539 122.078 435.539 122.078L428.554 120.33C428.554 120.33 423.533 120.987 423.533 120.33C423.533 119.678 420.256 115.966 420.256 115.966C420.256 115.966 436.36 98.7169 437.915 98.0608C438.497 97.8152 441.136 97.4784 444.248 97.1871L441.708 89.3347H431.389Z" fill="#F44A45"/>
<path d="M474.147 108.074L482.14 110.576L484.645 115.579L490.992 116.618V122.077L484.645 138.045L474.147 123.06L473.747 116.839L474.147 108.074Z" fill="#F44A45"/>
<path d="M33.4859 134.184L39.6647 135.956L42.8962 135.072C42.8962 135.072 45.4365 135.766 46.9171 135.072L48.3978 134.373V130.3L46.0715 127.63L40.8997 125.686C40.8997 125.686 34.8648 132.637 33.4859 134.184Z" fill="#F44A45"/>
</svg>
