<svg width="236" height="383" viewBox="0 0 236 383" fill="none" xmlns="http://www.w3.org/2000/svg">
<path d="M180.814 380.845C180.814 380.845 181.859 372.47 186.571 370.898C191.284 369.326 208.037 357.807 212.227 357.284C216.416 356.762 212.227 366.709 212.227 366.709C212.227 366.709 195.996 378.228 191.81 380.845C187.62 383.463 180.228 383.599 180.814 380.845Z" fill="#F44A45"/>
<path d="M222.174 357.265C222.174 357.265 226.363 349.431 226.886 345.245C227.409 341.055 231.076 337.915 231.076 337.915C231.076 337.915 232.644 346.796 233.17 347.589C233.693 348.385 235.261 349.957 235.261 353.097C235.261 356.237 223.22 361.999 222.174 361.472C221.128 360.95 220.62 360.395 222.174 357.265Z" fill="#F44A45"/>
<path d="M114.846 215.402C114.846 215.402 118.249 224.304 119.558 224.827C120.867 225.349 132.909 227.967 136.312 230.584C139.716 233.202 137.884 236.868 136.312 238.44C134.74 240.009 137.621 242.626 139.975 242.367C142.333 242.103 144.951 243.412 145.736 244.984C146.522 246.552 150.971 248.387 152.28 247.338C153.589 246.293 155.161 242.103 156.992 241.581C158.824 241.058 164.845 240.009 165.368 241.581C165.894 243.149 169.557 246.384 171.129 247.647C172.697 248.91 176.627 248.742 179.504 247.647C182.385 246.552 178.195 245.507 176.627 244.461C175.055 243.412 172.697 241.84 171.388 237.654C170.08 233.465 171.915 232.156 168.511 230.325C165.108 228.49 150.449 218.543 146.522 217.497C142.593 216.448 129.242 219.592 125.316 218.283C121.39 216.974 121.39 214.616 120.344 214.094C119.295 213.571 113.015 210.964 114.846 215.402Z" fill="#F44A45"/>
<path d="M176.365 229.276C176.365 229.276 180.554 229.231 182.649 230.694C184.74 232.157 186.835 232.68 185.003 233.203C183.172 233.725 177.937 235.56 176.365 233.988C174.793 232.417 173.993 229.115 176.365 229.276Z" fill="#F44A45"/>
<path d="M86.4036 240.818C86.4036 240.818 89.6772 237.762 92.2981 237.762C94.9191 237.762 98.1927 239.288 98.1927 239.288C98.1927 239.288 93.3893 241.909 91.2069 242.565C89.0245 243.218 84.8352 242.07 86.4036 240.818Z" fill="#F44A45"/>
<path d="M73.7414 240.256C73.7414 240.256 76.3624 237.323 78.7623 236.888C81.1658 236.45 84.8744 237.758 84.8744 237.758C84.8744 237.758 82.257 239.042 79.3097 240.256C76.3624 241.47 72.7028 241.284 73.7414 240.256Z" fill="#F44A45"/>
<path d="M72.6484 242.753C72.6484 242.753 75.2694 243.16 76.3606 242.753C77.4518 242.346 77.0167 245.402 75.487 245.402C73.9572 245.402 71.5572 245.252 72.6484 242.753Z" fill="#F44A45"/>
<path d="M63.2307 239.216C63.2307 239.216 65.6481 237.932 67.8621 237.472C70.0796 237.012 73.3708 236.693 72.7322 237.472C72.0936 238.251 71.0866 239.998 69.2726 240.276C67.4621 240.553 61.2869 240.107 63.2307 239.216Z" fill="#F44A45"/>
<path d="M32.5325 230.694C32.5325 230.694 35.2693 228.641 39.4938 229.269C43.7217 229.901 49.1918 230.925 52.6724 231.939C56.153 232.957 61.3774 236.929 63.6124 236.799C65.851 236.669 67.3422 237.939 64.6089 238.287C61.8721 238.634 53.4057 238.852 49.3111 237.76C45.2129 236.669 40.7253 234.108 37.4973 233.859C34.2728 233.613 30.8063 231.578 32.5325 230.694Z" fill="#F44A45"/>
<path d="M76.1413 229.149C76.1413 229.149 73.194 220.95 72.8116 217.455C72.4291 213.964 77.1237 205.666 77.6711 204.248C78.2149 202.827 88.4778 203.045 91.0953 202.062C93.7163 201.08 90.2216 206.539 87.7129 206.539C85.2007 206.539 80.8745 207.083 79.2184 207.848C77.5588 208.613 78.4325 210.904 78.7623 210.904C79.0886 210.904 84.2183 211.013 84.8744 211.669C85.5305 212.325 82.3411 214.29 82.4078 214.834C82.4745 215.381 85.4218 220.62 85.5305 222.258C85.6393 223.897 84.7656 228.479 84.2183 228.044C83.6744 227.609 81.0534 225.97 80.7271 224.662C80.3973 223.349 79.4149 221.167 78.1062 220.95C76.7974 220.728 77.45 224.662 77.45 226.079C77.45 227.497 76.5904 230.434 76.1413 229.149Z" fill="#F44A45"/>
<path d="M91.096 213.526C91.096 213.526 93.6082 213.852 94.3696 215.056C95.1345 216.256 93.3731 216.582 92.124 216.473C90.8784 216.365 89.1311 213.744 91.096 213.526Z" fill="#F44A45"/>
<path d="M99.8304 209.596C99.8304 209.596 99.7216 206.322 99.8304 204.575C99.9392 202.828 100.157 200.754 101.03 200.754C101.904 200.754 103.978 204.358 103.651 205.175C103.325 205.993 102.546 208.94 101.732 209.596C100.922 210.252 99.8655 211.129 99.8304 209.596Z" fill="#F44A45"/>
<path d="M105.29 214.399C105.29 214.399 107.581 214.42 108.564 215.009C109.546 215.599 110.093 216.185 109.546 216.493C109.002 216.799 106.599 216.62 105.946 216.493C105.29 216.364 103.886 214.297 105.29 214.399Z" fill="#F44A45"/>
<path d="M42.4081 201.946C42.7309 201.83 46.8852 200.209 49.6114 200.209C52.3412 200.209 54.9622 193.332 58.127 192.893C61.2918 192.458 63.6707 186.346 66.0847 185.364C68.4987 184.381 74.1406 187.216 73.5582 188.09C72.9722 188.964 70.7898 191.367 69.9162 193.002C69.0425 194.641 69.6986 199.227 70.3548 200.753C71.0074 202.283 73.1898 204.356 72.8108 204.795C72.4284 205.23 66.9443 216.145 66.0847 217.893C65.2251 219.64 63.369 221.058 61.0743 221.166C58.7831 221.279 51.1623 220.514 49.0781 219.531C46.994 218.549 45.4642 214.261 44.9203 212.858C44.373 211.451 43.0642 209.595 42.9555 207.742C42.8432 205.886 41.6643 202.212 42.4081 201.946Z" fill="#F44A45"/>
<path d="M0.49322 186.891C0.49322 186.891 7.69654 189.403 9.22633 190.603C10.7561 191.803 15.0121 197.48 17.6331 200.319C20.2506 203.157 24.6189 206.213 24.9452 207.522C25.2715 208.834 31.7801 218.659 32.0749 219.859C32.3696 221.059 33.4187 226.3 32.0749 226.409C30.731 226.518 23.7453 224.662 22.5453 223.023C21.3418 221.388 15.3385 215.929 15.1209 213.525C14.9034 211.125 12.3912 203.684 11.0824 201.947C9.77368 200.21 7.1527 200.319 6.27904 199.119C5.40537 197.915 3.1142 192.459 1.58442 192.021C0.0581437 191.586 -0.48921 186.54 0.49322 186.891Z" fill="#F44A45"/>
<path d="M30.4014 212.544C30.4014 212.544 30.4014 215.747 31.6014 216.494C32.8013 217.238 33.4575 218.221 33.896 217.894C34.3311 217.565 34.6574 216.273 34.3311 215.01C34.0048 213.744 30.3032 211.207 30.4014 212.544Z" fill="#F44A45"/>
<path d="M99.7244 94.8052V86.5177L101.381 82.8722L104.366 85.5248V90.4966V94.8052H99.7244Z" fill="#F44A45"/>
<path d="M104.366 79.8881L108.011 74.9163H114.309L117.046 71.5691L119.614 67.292C119.614 67.292 120.277 70.9375 122.267 65.3026L124.253 59.6676V55.6888H129.558L133.203 57.6782V71.5691L131.214 77.5689L127.239 79.8881L117.046 84.5301C117.046 84.5301 118.618 88.1756 115.306 86.1862L111.99 84.1968L107.348 82.8705H104.366V79.8881Z" fill="#F44A45"/>
<path d="M123.26 51.0501V46.7414L126.243 42.4328V37.461H131.548L135.193 39.4469L138.839 41.4363L135.193 47.4046L129.892 51.0501H126.906H123.26Z" fill="#F44A45"/>
<path d="M124.919 33.4799L123.263 20.8837V18.8943L118.786 12.9295V2.48837e-05H121.853L123.263 7.9542L128.235 18.8943L131.052 20.5504V24.8625V31.8238V33.4799H124.919Z" fill="#F44A45"/>
<path d="M74.8634 138.339V146.294L73.0179 151.157L76.1897 154.914L80.1686 157.788L81.7124 152.262V144.75V138.339L77.3651 137.346L74.8634 138.339Z" fill="#F44A45"/>
<path d="M83.9239 154.029L84.8081 157.787V159.113L87.9027 161.541L89.008 157.787V154.029L87.4606 152.924L83.9239 154.029Z" fill="#F44A45"/>
<path d="M90.6526 161.544V163.754L89.0071 167.733L86.4633 168.835V172.15H87.6808L90.6526 170.824C90.6526 170.824 93.2034 168.393 94.3087 166.849L95.4139 165.301V162.87L90.6526 161.544Z" fill="#F44A45"/>
<path d="M77.3673 157.786L82.7531 159.554V161.543L80.062 162.428L77.3673 161.543L76.634 160.105L77.3673 157.786Z" fill="#F44A45"/>
<path d="M67.7913 172.15L70.2228 166.845L73.0157 164.417H75.5245L76.6297 165.74L75.5245 169.719L73.0157 172.15L72.2123 176.129H67.7913V172.15Z" fill="#F44A45"/>
<path d="M82.7531 179.664L89.0055 176.127L90.9388 172.152H93.6475L95.051 173.475L95.4159 175.906V179.664L95.051 184.085L92.4896 184.952L89.0055 183.215V181.433L83.925 183.215H82.7531V179.664Z" fill="#F44A45"/>
<path d="M42.413 201.945L45.9041 203.847H50.3215L54.1916 204.528L57.8862 201.945L61.816 196.774L65.5703 192.907L66.0895 190.367L69.3281 188.048L71.3385 186.205C71.3385 186.205 67.9491 184.286 66.7878 184.949C65.6229 185.613 63.6931 186.872 63.6931 186.872L56.8757 193.395L54.3004 194.668L50.1005 199.647L46.676 200.202C46.676 200.202 42.648 201.472 42.413 201.945Z" fill="#F44A45"/>
</svg>
