<?xml-stylesheet type="text/css" href="../css/style.css" ?>
<svg id="north_america_svg" width="441" height="329" viewBox="0 0 441 329" fill="none" xmlns="http://www.w3.org/2000/svg">
<g>
<path d="M212.232 273.34C212.232 273.34 222.873 272.848 224.021 273.34C225.168 273.831 235.649 280.543 236.631 281.034C237.613 281.525 243.017 283.981 243.017 283.981C243.017 283.981 241.543 285.129 240.396 285.455C239.249 285.785 231.228 285.455 231.228 285.455C231.228 285.455 229.754 281.525 228.933 281.034C228.115 280.543 223.203 277.925 222.056 277.596C220.909 277.269 213.87 279.361 213.87 279.361C213.87 279.361 210.923 277.434 210.432 276.778C209.94 276.122 212.232 273.34 212.232 273.34Z" fill="#F44A45"/>
<path d="M229.751 289.551C229.751 289.551 233.355 290.207 234.663 290.533C235.972 290.859 237.446 292.824 237.446 292.824C237.446 292.824 234.172 292.498 233.6 292.824C233.025 293.154 229.751 292.824 229.751 292.824C229.751 292.824 228.674 289.351 229.751 289.551Z" fill="#F44A45"/>
<path d="M243.015 289.542C243.015 289.542 244.654 290.353 245.798 289.542C246.945 288.732 248.583 287.093 249.566 287.093C250.548 287.093 254.478 286.767 255.296 287.093C256.113 287.423 258.573 288.388 257.917 289.542C257.26 290.697 254.478 293.97 253.331 293.97C252.183 293.97 249.236 294.627 248.745 293.97C248.254 293.318 246.945 292.97 246.945 292.97C246.945 292.97 244.654 292.335 243.998 292.17C243.341 292.006 241.099 289.213 243.015 289.542Z" fill="#F44A45"/>
<path d="M298.033 175.093C298.033 175.093 309.658 164.778 310.64 165.595C311.623 166.416 310.64 171.328 310.64 171.328C310.64 171.328 312.145 172.472 313.77 172.637C315.391 172.802 316.208 177.714 316.538 178.367C316.865 179.023 316.538 184.752 315.391 184.752C314.244 184.752 311.787 182.952 311.787 182.952L304.254 181.805L301.798 180.823C301.798 180.823 297.051 180.005 297.216 179.349C297.377 178.696 298.033 175.093 298.033 175.093Z" fill="#F44A45"/>
<path d="M231.389 104.683C231.389 104.683 234.501 98.4624 235.81 97.6414C237.119 96.8239 241.704 96.3327 241.704 96.3327C241.704 96.3327 244.325 101.736 244.982 101.901C245.634 102.062 249.564 104.683 249.564 104.683L248.42 105.666H241.704C241.704 105.666 237.448 109.431 236.792 109.595C236.136 109.76 230.747 105.922 231.389 104.683Z" fill="#F44A45"/>
<path d="M239.085 110.741C239.085 110.741 238.268 113.197 239.085 113.362C239.903 113.523 242.85 112.049 243.18 110.741L243.506 109.432C243.506 109.432 239.376 109.586 239.085 110.741Z" fill="#F44A45"/>
<path d="M254.807 106.484L253.333 109.6C253.333 109.6 252.842 109.922 254.807 109.431C256.772 108.94 258.245 106.484 258.245 106.484C258.245 106.484 256.607 105.175 254.807 106.484Z" fill="#F44A45"/>
<path d="M257.262 102.966C257.262 102.966 265.778 104.682 266.922 104.682C268.069 104.682 270.36 109.103 271.673 109.432C272.981 109.759 277.732 109.934 279.367 111.401C281.006 112.871 284.609 117.945 285.427 117.783C286.244 117.618 285.427 115.162 285.427 115.162L282.971 107.804C282.971 107.804 289.03 113.713 289.683 113.373C290.339 113.032 291.321 102.966 291.321 102.966C291.321 102.966 286.735 96.8223 286.574 96.3311C286.409 95.8399 287.065 94.8574 288.209 94.6925C289.356 94.5311 293.777 99.117 295.416 98.9521C297.051 98.7871 303.931 91.254 303.931 91.254C303.931 91.254 287.065 80.9385 288.374 80.4473C289.683 79.9561 290.174 79.7947 290.174 79.1385C290.174 78.4824 291.321 75.2088 291.321 75.2088C291.321 75.2088 283.627 66.202 282.479 66.202H277.241C277.241 66.202 277.076 66.0371 274.785 64.4021C272.49 62.7635 258.245 61.946 258.245 61.946C258.245 61.946 255.298 57.3601 254.806 57.0338C254.315 56.704 248.421 57.0338 248.421 57.0338C248.421 57.0338 244.817 65.0547 244.326 64.4021C243.835 63.7459 244.326 60.6337 244.326 60.6337L245.964 55.3953L240.452 56.3777C240.452 56.3777 233.684 63.581 233.845 64.4021C234.01 65.2196 234.502 73.079 234.502 73.079C234.502 73.079 239.379 75.5351 241.115 75.8649C242.852 76.1912 251.585 76.1912 253.277 76.1912C254.971 76.1912 259.719 75.5351 259.719 75.5351L262.175 74.0615L263.483 77.5C263.483 77.5 265.613 81.9209 266.269 82.0858C266.922 82.2507 272.49 84.0507 272.49 84.0507C272.49 84.0507 271.999 90.2716 271.999 90.7628C271.999 91.254 267.087 95.6785 266.269 96.3311C265.448 96.9872 260.21 100.261 259.554 100.261C258.901 100.261 256.045 102.724 257.262 102.966Z" fill="#F44A45"/>
<path d="M266.758 84.2133C266.758 84.2133 262.828 86.5045 262.828 87.3255C262.828 88.143 262.011 92.0728 262.828 91.9078C263.646 91.7464 266.267 88.6378 266.758 88.0623C267.249 87.4869 266.758 84.2133 266.758 84.2133Z" fill="#F44A45"/>
<path d="M260.207 77.8283C260.207 77.8283 258.078 77.8283 257.26 78.9757C256.443 80.1195 255.758 81.2668 255.758 81.2668C255.758 81.2668 258.078 81.5931 259.06 81.2668C260.043 80.9405 261.025 79.6213 261.025 79.6213C261.025 79.6213 261.039 77.7476 260.207 77.8283Z" fill="#F44A45"/>
<path d="M139.091 60.7993C139.091 60.7993 140.621 62.2168 140.73 62.5466C140.839 62.8729 140.73 65.8202 140.73 65.8202C140.73 65.8202 150.881 66.4763 151.319 65.8202C151.754 65.1676 152.737 61.7817 153.502 61.4554C154.266 61.1256 157.54 58.0695 157.54 58.0695C157.54 58.0695 158.196 62.0729 157.54 62.0905C156.884 62.108 156.884 63.7465 156.884 63.7465L157.831 69.0973C157.831 69.0973 169.656 69.6411 169.438 69.9674C169.22 70.2973 166.599 71.1709 166.599 71.1709C166.599 71.1709 158.631 72.2621 158.414 72.6972C158.196 73.1358 157.975 75.2094 157.975 75.2094C157.975 75.2094 165.726 78.9216 166.929 79.5742C168.129 80.2303 172.168 80.7777 172.824 80.6654C173.477 80.5566 176.862 78.3742 176.862 78.3742C176.862 78.3742 185.595 78.8128 186.578 78.8128C187.56 78.8128 190.834 79.6654 191.599 79.6198C192.364 79.5742 195.42 79.6198 195.42 79.6198C195.42 79.6198 197.167 75.2094 197.711 74.9919C198.258 74.7708 199.676 73.5709 199.676 73.5709C199.676 73.5709 199.785 72.1533 199.676 71.4972C199.567 70.8411 192.146 62.6553 191.599 61.6729C191.051 60.6905 190.181 57.0871 190.181 57.0871H187.013C187.013 57.0871 185.704 59.3817 185.157 59.4905C184.613 59.5993 183.522 57.9607 183.522 57.9607L179.592 59.3817C179.592 59.3817 170.638 58.9432 170.094 58.5081C169.547 58.0695 166.929 56.1046 166.929 56.1046L164.964 56.8695L163.652 55.3959C163.652 55.3959 164.526 54.6871 164.743 54.031C164.964 53.3749 164.635 51.8486 164.635 51.8486C164.635 51.8486 157.649 52.0661 157.323 51.8486C156.993 51.6311 155.358 50.6486 154.919 50.5364C154.484 50.4276 145.095 50.5364 145.095 50.5364C145.095 50.5364 142.256 55.231 142.147 55.9959C142.039 56.7608 139.091 60.7993 139.091 60.7993Z" fill="#F44A45"/>
<path d="M154.348 39.4024C154.348 39.4024 154.593 38.3112 155.137 37.8726C155.685 37.4376 164.2 32.9605 164.744 32.7429C165.291 32.5254 173.151 32.7429 173.151 32.7429C173.151 32.7429 171.512 35.7043 170.856 36.0236C170.204 36.3464 165.509 38.5288 165.509 38.5288C165.509 38.5288 163.955 41.5848 163.748 41.6936C163.544 41.8024 162.123 40.0585 162.123 40.0585C162.123 40.0585 154.169 39.9708 154.348 39.4024Z" fill="#F44A45"/>
<path d="M168.129 43.4433C168.129 43.4433 173.259 38.6399 173.806 38.4224C174.35 38.2048 179.375 41.5977 179.919 41.703C180.466 41.8047 180.357 43.7696 180.357 44.4257C180.357 45.0819 177.41 47.6993 177.41 48.1379C177.41 48.573 175.88 49.1203 175.88 49.1203C175.88 49.1203 175.017 47.5906 174.249 47.373C173.48 47.1555 168.456 46.7169 168.129 46.6081C167.803 46.4994 167.207 44.2994 168.129 43.4433Z" fill="#F44A45"/>
<path d="M191.817 54.2489C191.817 54.2489 192.909 53.2664 193.673 53.1577C194.438 53.0489 195.53 53.1577 195.53 53.1577C195.53 53.1577 196.294 55.6664 195.53 55.9962C194.765 56.3225 193.126 56.8699 193.126 56.8699C193.126 56.8699 192.035 55.0138 191.817 54.2489Z" fill="#F44A45"/>
<path d="M201.535 59.5978C201.535 59.5978 202.409 59.1627 203.391 58.9416C204.374 58.7241 206.886 58.9416 206.886 58.9416C206.886 58.9416 207.321 57.8504 206.886 57.3066C206.447 56.7592 205.683 56.2154 205.683 56.2154V54.9874C205.683 54.9874 211.577 54.4681 211.798 54.0295C212.016 53.5944 212.998 53.1699 213.324 53.1102C213.651 53.0471 216.272 53.1102 216.272 53.1102C216.272 53.1102 214.854 55.8856 214.416 55.8856C213.981 55.8856 212.56 56.868 212.56 56.868C212.56 56.868 213.324 57.6329 213.763 57.9592C214.198 58.289 214.745 58.9416 214.854 59.5978C214.963 60.2539 214.198 63.2012 214.198 63.2012C214.198 63.2012 211.033 66.8011 210.486 66.8011C209.942 66.8011 208.086 67.566 207.647 66.8011C207.212 66.0397 206.556 63.9661 206.556 63.9661C206.556 63.9661 203.283 63.2012 202.735 62.9801C202.191 62.7626 201.535 59.5978 201.535 59.5978Z" fill="#F44A45"/>
<path d="M193.843 46.2474C193.843 46.2474 193.317 45.3246 192.58 44.9141C191.843 44.5036 189.633 43.0299 189.387 42.9492C189.142 42.8685 187.096 42.3317 187.016 41.7001C186.931 41.0651 186.77 38.1178 187.423 37.7108C188.079 37.3003 189.963 36.6441 189.963 36.6441C189.963 36.6441 190.78 38.6932 191.107 38.8546C191.436 39.0195 192.647 40.0826 193.843 40.0826C195.04 40.0826 197.005 40.9037 197.005 40.9037C197.005 40.9037 195.531 42.2124 195.201 42.2124C194.875 42.2124 194.629 44.1773 194.629 44.1773L195.868 45.079C195.868 45.079 194.142 46.686 193.843 46.2474Z" fill="#F44A45"/>
<path d="M180.366 31.9796C180.366 31.9796 179.892 30.5866 181.12 30.2603C182.348 29.934 183.085 28.7867 183.085 28.7867C183.085 28.7867 185.134 26.4113 185.541 26.3306C185.952 26.2499 190.537 26.3306 190.537 26.3306C190.537 26.3306 188.488 28.7516 188.488 29.1376C188.488 29.5235 188.818 31.4884 188.818 31.4884C188.818 31.4884 187.752 33.5339 187.345 33.6181C186.934 33.6988 182.187 34.1901 182.022 34.1094C181.857 34.0251 180.366 31.9796 180.366 31.9796Z" fill="#F44A45"/>
<path d="M179.156 28.4594C179.156 28.4594 176.454 29.0313 176.454 29.6067C176.454 30.1787 174.489 31.8979 174.815 31.9786C175.145 32.0628 176.966 31.9786 176.966 31.9786C176.966 31.9786 178.664 30.9155 179.156 30.5892C179.647 30.2594 180.629 28.0594 179.156 28.4594Z" fill="#F44A45"/>
<path d="M197.905 45.4529C197.905 45.4529 199.624 44.8354 200.28 44.8354H202.652C202.652 44.8354 202.325 46.6353 201.017 47.0459C199.704 47.4529 197.905 47.4529 197.905 47.4529C197.905 47.4529 196.452 45.9055 197.905 45.4529Z" fill="#F44A45"/>
<path d="M219.846 56.3774C219.846 56.3774 222.383 55.23 223.449 55.3949C224.513 55.5599 226.804 54.9879 226.804 54.9879C226.804 54.9879 228.442 53.5108 230.242 53.5108H233.842C233.842 53.5108 232.453 56.2967 231.961 56.8686C231.47 57.4405 229.098 58.1773 229.098 58.1773H225.576C225.576 58.1773 224.021 60.5527 223.53 60.7176C223.039 60.879 221.646 62.0264 221.239 62.0264H218.372C218.372 62.0264 218.59 56.8756 219.846 56.3774Z" fill="#F44A45"/>
<path d="M221.647 53.0821C221.647 53.0821 223.447 51.9558 225.004 51.9558H228.934C228.934 51.9558 227.622 54.0856 226.559 54.2505C225.496 54.4119 221.32 54.5768 221.075 54.6575C220.829 54.7417 221.647 53.0821 221.647 53.0821Z" fill="#F44A45"/>
<path d="M219.844 47.0446C219.844 47.0446 221.237 44.9991 221.564 44.8342C221.89 44.6693 223.318 44.2833 224.981 44.1886C226.641 44.0973 228.932 44.1886 228.932 44.1886C228.932 44.1886 228.686 47.8622 227.704 48.1078C226.722 48.3534 223.118 49.3358 221.809 49.6656C220.501 49.9919 219.844 47.0446 219.844 47.0446Z" fill="#F44A45"/>
<path d="M206.255 43.7646C206.255 43.7646 208.031 44.1786 208.901 44.8347C209.774 45.4874 211.658 46.2242 211.904 46.1435C212.15 46.0628 214.441 46.2593 214.932 46.3259C215.423 46.3891 216.736 42.2699 216.736 42.2699C216.736 42.2699 218.125 40.4138 218.371 40.084C218.616 39.7577 217.879 38.4103 217.879 38.4103H212.806C212.806 38.4103 211.739 37.9577 211.413 38.0384C211.087 38.1191 208.901 40.3296 208.901 40.3296L206.255 43.7646Z" fill="#F44A45"/>
<path d="M201.535 40.1672L203.472 38.0304C203.472 38.0304 204.538 38.1813 205.437 38.0304C206.338 37.876 206.258 39.7566 206.258 39.7566C206.258 39.7566 204.619 41.6584 204.374 41.4864C204.128 41.3145 202.328 41.4864 202.328 41.4864C202.328 41.4864 200.623 41.1742 201.535 40.1672Z" fill="#F44A45"/>
<path d="M198.396 32.0155C198.396 32.0155 199.01 33.3699 199.726 33.6155C200.442 33.8611 201.266 34.5172 201.266 34.5172L202.652 35.0084C202.652 35.0084 202.326 32.3804 202.08 32.0155C201.835 31.6506 198.052 31.3945 198.396 32.0155Z" fill="#F44A45"/>
<path d="M212.34 24.1742C212.34 24.1742 209.722 22.7006 209.066 22.4269C208.414 22.1532 206.256 22.4269 206.256 22.4269L205.466 24.1742L202.898 26.2935C202.898 26.2935 201.053 28.0478 201.267 28.104C201.481 28.1601 204.87 28.4303 206.259 28.5952C207.649 28.7601 211.905 28.3215 211.905 28.3215L213.379 30.2057C213.379 30.2057 215.017 30.8337 215.508 30.8337C216 30.8337 217.856 30.56 217.856 30.56C217.856 30.56 217.308 27.6689 216.982 27.3391C216.656 27.0128 214.252 25.9742 214.252 25.9742C214.252 25.9742 212.887 24.4795 212.34 24.1742Z" fill="#F44A45"/>
<path d="M226.313 31.9798C226.313 31.9798 223.04 31.4886 222.601 30.8325C222.166 30.1799 221.457 29.415 221.457 29.415L219.38 27.1765C219.38 27.1765 223.583 25.8677 224.622 25.7028C225.657 25.5379 227.622 27.394 227.787 27.6115C227.952 27.8326 228.278 29.1413 228.278 29.1413L228.934 30.3413L230.243 31.6395C230.243 31.6395 227.092 32.1167 226.313 31.9798Z" fill="#F44A45"/>
<path d="M228.387 32.2526C228.387 32.2526 230.243 32.0877 230.952 32.2526C231.66 32.4176 232.316 33.3263 232.316 33.3263L232.59 34.3824C232.59 34.3824 229.86 34.5438 229.534 34.3824C229.204 34.2175 228.331 34 227.896 33.7263C227.46 33.4526 228.387 32.2526 228.387 32.2526Z" fill="#F44A45"/>
<path d="M222.165 36.4547C222.165 36.4547 227.459 36.346 228.277 36.4547C229.098 36.5635 230.571 37.2723 230.571 37.2723L232.589 38.0266C232.589 38.0266 230.298 39.1283 229.859 39.2371C229.424 39.3459 226.694 39.1845 226.477 39.2371C226.259 39.2933 224.389 38.5284 224.389 38.5284C224.389 38.5284 222.929 38.5845 222.165 38.4757C221.4 38.3635 220.691 37.5459 220.691 37.5459C220.691 37.5459 221.347 36.1811 222.165 36.4547Z" fill="#F44A45"/>
<path d="M176.645 48.7901C176.645 48.7901 181.557 46.6849 182.757 46.9165C183.96 47.1516 189.855 46.9165 189.855 46.9165L194.493 46.1446L190.535 41.6991L187.56 39.7588L181.774 41.6991L177.859 40.5412L176.645 44.8324V48.7901Z" fill="#F44A45"/>
<path d="M222.165 38.4747C222.165 38.4747 226.119 40.4957 226.109 40.4957C226.095 40.4957 228.825 42.3307 229.807 42.1763C230.789 42.0219 231.445 44.8324 231.445 44.8324L233.842 48.7902L235.375 49.6884C235.375 49.6884 240.722 48.134 241.922 48.7902C243.126 49.4463 246.073 50.8778 246.508 50.4884C246.947 50.0989 252.077 49.1691 254.259 49.6884C256.441 50.2112 261.027 50.555 261.027 50.555L264.722 48.7902C264.722 48.7902 261.245 45.4604 260.592 44.8324C259.936 44.2043 252.077 43.4429 252.077 43.4429C252.077 43.4429 242.143 43.5517 241.814 43.3342C241.487 43.1131 239.084 39.6746 238.758 39.7588C238.431 39.8395 233.842 38.4747 233.842 38.4747H222.165Z" fill="#F44A45"/>
<path d="M259.718 55.3947C259.718 55.3947 260.957 58.0157 262.465 58.5069C263.974 58.9982 268.886 59.4894 268.886 59.4894H272.981C272.981 59.4894 270.521 55.5596 268.886 55.3947C267.251 55.2298 259.718 55.3947 259.718 55.3947Z" fill="#F44A45"/>
<path d="M270.361 40.8223C270.361 40.8223 268.561 39.2083 267.74 39.2784C266.922 39.3486 265.614 38.4749 265.614 38.4749L262.466 40.8223C262.466 40.8223 259.526 39.2083 258.393 39.2784C257.263 39.3486 252.512 39.2784 252.512 39.2784L248.582 39.7591L242.688 39.6504L240.232 38.0293C240.232 38.0293 243.835 34.8014 244.326 34.454C244.818 34.1101 245.961 32.2155 246.453 32.1804C246.944 32.1453 249.239 31.7242 249.73 32.1804C250.221 32.6365 251.856 33.3242 251.856 33.3242L252.677 32.1804L251.53 30.2155L249.4 28.8471L250.547 28.412L249.4 26.57L246.453 28.412H242.688L234.828 27.5594L231.881 20.3526L228.934 19.0439C228.934 19.0439 227.951 15.9317 228.934 15.9317C229.916 15.9317 232.59 12.823 232.59 12.823C232.59 12.823 235.646 8.40204 236.302 8.40204C236.958 8.40204 242.032 9.87569 242.032 9.87569C242.032 9.87569 252.838 20.5175 253.003 21.0087C253.168 21.4999 254.312 25.7911 254.968 25.6928C255.624 25.5946 259.719 26.2928 259.719 26.2928C259.719 26.2928 258.87 22.949 258.393 22.3069C257.916 21.6649 255.761 18.879 255.761 18.879L257.424 18.0614C257.424 18.0614 259.063 17.8965 261.028 19.0439L262.993 20.1912L262.466 15.9317L258.393 14.6229L253.821 14.1317L249.428 12.6581C249.428 12.6581 246.944 11.0195 245.8 9.87569C244.653 8.72835 244.488 6.76348 244.488 6.76348L249.428 4.63371L255.761 2.99867L258.393 3.81619L262.466 2.99867C262.466 2.99867 266.754 1.52502 268.887 1.03381C271.017 0.542592 273.799 1.85133 278.055 1.03381C282.315 0.212776 283.624 -0.015288 285.262 0.918021C286.901 1.85133 288.701 1.85133 288.701 1.85133L292.304 0.311022C292.304 0.311022 295.413 0.412773 299.834 0.311022C304.255 0.212778 306.22 0.311022 306.22 0.311022L310.149 2.99867L315.226 4.47232C315.226 4.47232 318.995 4.63372 319.486 5.12493C319.977 5.61615 316.539 8.23713 316.539 8.23713L307.041 9.21956C307.041 9.21956 305.893 15.1141 305.076 15.1141C304.255 15.1141 300.655 16.4229 300.655 16.4229C300.655 16.4229 294.104 19.0439 292.795 19.3702C291.483 19.7 281.659 20.5456 281.659 20.5456C281.659 20.5456 280.841 26.0858 280.35 26.4121C279.859 26.7419 277.894 28.8471 277.894 28.8471L278.547 30.3418L270.035 36.4083C270.035 36.4083 272.326 37.7346 271.343 39.2784L270.361 40.8223Z" fill="#F44A45"/>
<path d="M285.753 30.0133C285.753 30.0133 287.391 27.7221 288.374 27.3923C289.356 27.066 294.268 26.0835 294.268 26.0835C294.268 26.0835 301.145 23.6275 302.454 23.3011C303.766 22.9713 307.366 20.5433 307.366 20.5433C307.366 20.5433 304.093 20.3539 303.928 19.2065C303.766 18.0592 304.749 16.7504 304.749 16.7504C304.749 16.7504 306.223 13.8032 307.366 13.4733C308.514 13.147 313.77 11.5085 313.77 11.5085L316.208 9.38221C316.208 9.38221 327.345 6.1051 329.145 5.28758C330.948 4.47006 343.555 5.7788 347.32 5.28758C351.088 4.79637 353.379 4.30514 353.379 4.30514C353.379 4.30514 355.344 2.99641 357.965 2.34029C360.586 1.68417 370.245 1.03154 374.34 1.52276C378.431 2.01398 381.378 0.26666 381.378 0.26666C381.378 0.26666 404.139 -0.333325 406.104 0.26666C408.069 0.866644 415.111 2.01397 415.602 2.01397C416.093 2.01397 419.532 5.45249 418.714 5.28758C417.897 5.12267 414.129 6.27001 414.129 6.27001C414.129 6.27001 397.427 7.08753 396.61 7.57875C395.789 8.06997 395.627 9.70851 396.118 9.70851C396.61 9.70851 416.585 8.72609 417.076 8.891C417.567 9.0524 414.95 12.9821 415.767 12.9821C416.585 12.9821 420.514 11.0173 421.006 11.0173C421.497 11.0173 439.293 11.5085 440.384 11.5085C441.475 11.5085 439.345 14.2944 439.345 14.2944C439.345 14.2944 433.616 16.0943 431.977 16.7504C430.339 17.4066 430.177 20.5153 429.356 20.5153C428.539 20.5153 424.118 22.4801 424.118 22.4801C424.118 22.4801 422.97 27.066 422.318 28.5396C421.662 30.0133 419.532 31.8132 419.532 31.8132C419.532 31.8132 420.844 34.5991 421.335 35.4166C421.827 36.2341 424.444 38.8411 424.444 40.8972V42.9498C424.444 42.9498 419.041 41.2972 418.549 40.8972C418.058 40.4937 418.058 42.9498 418.058 42.9498L419.862 44.4234C419.862 44.4234 420.353 55.2301 419.862 56.2126C419.37 57.195 418.058 60.1423 418.058 60.1423L409.872 56.8687C409.872 56.8687 409.216 60.1423 409.872 60.1423C410.525 60.1423 413.802 62.7633 413.802 62.7633L414.458 66.693C414.458 66.693 410.034 65.0545 408.725 64.2369C407.416 63.4159 407.251 64.8895 407.251 64.8895L408.234 65.872L413.146 68.493C413.146 68.493 414.62 72.0964 414.785 73.4051C414.95 74.7174 414.458 75.6998 414.458 75.6998H410.034L407.743 73.57L404.304 73.2402L401.192 74.0612L398.083 74.5525L397.592 76.6822L402.504 77.4997C402.504 77.4997 407.743 76.8436 409.543 77.4997C411.346 78.1559 407.087 81.4295 406.595 82.0856C406.104 82.7382 400.539 86.6679 399.883 86.6679C399.227 86.6679 397.753 86.3416 392.189 86.6679C386.62 86.9977 383.343 87.9802 383.343 87.9802L381.052 91.2538C381.052 91.2538 377.779 94.2011 377.287 94.6923C376.796 95.1835 373.028 95.8396 373.028 95.8396H367.298C367.298 95.8396 366.481 99.1132 365.66 99.6044C364.842 100.096 358.947 106.973 358.947 106.973C358.947 106.973 355.67 114.997 354.527 116.962C353.379 118.927 352.562 121.709 351.579 122.53C350.597 123.348 348.141 125.804 348.141 125.804H343.72L334.057 118.762L330.618 107.629C330.618 107.629 329.31 107.464 329.145 106.32C328.983 105.173 326.033 95.3484 326.033 95.3484L326.197 86.5907L330.127 83.5592L331.931 82.5768L332.092 77.6646L330.948 76.8436L328.327 78.8085H325.706L326.854 74.0612L329.145 72.0964L333.404 71.7666L329.801 68.9842L325.05 67.8368C325.05 67.8368 324.068 55.3951 323.25 54.4126C322.433 53.4302 319.531 50.5531 319.531 50.5531L315.882 44.5146L310.805 42.4585L305.893 40.8972L302.293 40.82L298.689 40.8972H293.777L290.174 38.4727L287.553 37.5464L289.848 36.2341L292.795 34.2693L295.903 33.4518L294.921 32.3044H289.683L288.044 31.1606L285.753 30.0133Z" fill="#F44A45"/>
<path d="M408.726 96.1678H412.82V98.2975H415.277L420.189 96.1678L429.031 95.1853L431.652 96.7397L433.778 100.589L430.013 107.957L424.936 109.922L419.698 111.887L417.077 109.595L411.347 108.448L408.726 102.88V102.062L407.579 99.6063L404.796 98.6238L406.27 96.659L408.726 96.1678Z" fill="#F44A45"/>
<path d="M100.231 161.83L103.343 163.96L106.617 167.068L107.764 170.016V171.819L103.996 169.363L100.887 166.823L100.231 163.468V161.83Z" fill="#F44A45"/>
<path d="M88.4412 131.537V138.414L85.0027 134.976V130.228C85.0027 130.228 87.1325 129.899 88.4412 131.537Z" fill="#F44A45"/>
<path d="M93.0249 138.415L95.6459 142.51V146.11L93.0249 143.818L90.5688 141.362L93.0249 138.415Z" fill="#F44A45"/>
<path d="M32.6029 134.308L35.8765 131.045L38.9887 128.589L40.2974 130.199L38.1712 133.009L36.4519 135.466H33.4204L32.6029 134.308Z" fill="#F44A45"/>
<path d="M184.419 237.62H173.812L159.226 241.02L154.349 237.62L145.967 235.34L135.36 237.62L114.757 236.22C115.287 238.94 115.799 242.403 117.094 243.375C119.059 244.848 119.88 252.381 120.206 253.364C120.532 254.346 121.189 256.637 122.827 257.294C124.462 257.95 126.592 264.009 127.083 265.644C127.574 267.283 132.322 271.048 133.469 271.377C134.616 271.704 135.108 268.756 135.108 268.756C135.108 268.756 131.178 263.518 130.848 262.206C130.522 260.897 129.048 256.802 128.883 256.311C128.722 255.82 125.283 244.522 125.936 244.522C126.592 244.522 127.41 244.848 127.41 244.848C127.41 244.848 131.995 255.655 132.651 257.129C133.304 258.602 141.167 267.448 142.149 268.43C143.132 269.413 145.258 282.675 145.749 283.167C146.241 283.658 155.904 292.335 156.886 293.156C157.868 293.973 164.089 297.577 165.563 298.394C167.037 299.212 170.314 299.377 170.805 299.377C171.296 299.377 181.612 299.542 181.938 300.194C182.264 300.85 187.668 306.419 187.997 307.236C188.324 308.054 196.839 308.054 197.987 308.383C199.13 308.71 201.095 313.131 201.425 314.439C201.751 315.752 211.576 326.558 212.723 327.706C213.867 328.85 219.6 329.015 220.418 328.85C221.235 328.688 223.2 327.706 223.856 327.05C224.512 326.394 224.512 324.102 224.512 324.102C224.512 324.102 222.874 322.302 222.056 322.302H218.126C218.126 322.302 212.232 318.369 211.741 317.225C211.249 316.078 212.884 300.685 212.558 300.033C212.232 299.377 200.604 297.412 200.113 296.429C199.622 295.447 200.113 292.335 200.113 292.335C200.113 292.335 203.716 284.149 203.716 283.167C203.716 282.184 199.895 279.398 199.895 279.398C199.895 279.398 186.359 287.258 185.541 287.749C184.72 288.24 172.605 286.931 171.949 285.949C171.296 284.967 172.44 262.371 172.77 260.406C173.096 258.441 178.991 252.217 181.612 251.564C184.229 250.908 197.987 251.234 199.13 250.743C200.278 250.252 204.534 248.125 204.534 248.125L196.352 241.02L184.419 237.62Z" fill="#F44A45"/>
<path d="M305.239 152.659L297.544 143C297.544 143 295.25 130.555 294.758 129.899C294.267 129.242 290.502 125.313 290.502 125.313C290.502 125.313 287.717 128.425 287.225 128.916L285.26 130.881L279.04 130.225C279.04 130.225 277.401 119.748 276.748 119.257C276.092 118.766 266.268 112.05 265.121 111.559C263.973 111.067 256.444 112.706 255.788 112.706C255.131 112.706 252.514 126.46 252.514 126.46C252.514 126.46 250.711 128.916 250.384 129.407C250.058 129.899 250.219 133.337 251.202 133.663C252.184 133.993 252.184 138.576 252.184 138.576L249.728 144.635C249.728 144.635 245.472 147.582 244.816 148.074C244.163 148.565 242.851 157.898 242.851 158.554C242.851 159.21 241.528 163.466 240.223 162.81C238.921 162.157 238.269 157.736 238.269 157.736L235.157 156.098C235.157 156.098 234.174 150.53 233.683 149.056C233.192 147.582 225.167 143.161 225.167 143.161C225.167 143.161 216.49 136.94 215.834 136.776C215.178 136.611 209.284 134.484 209.284 134.484L208.466 131.699C208.466 131.699 206.01 130.881 205.68 130.39C205.354 129.899 205.189 125.643 206.171 124.495C207.154 123.348 218.455 108.285 219.438 107.794C220.42 107.303 224.676 106.811 224.676 106.811C224.676 106.811 234.992 95.8398 236.3 95.0223C237.613 94.2013 242.69 93.0574 242.69 93.0574C242.69 93.0574 249.402 90.9277 250.058 90.4364C250.711 89.9452 251.858 79.4648 251.202 78.6473C250.549 77.8262 244.163 77.0087 243.507 77.335C242.851 77.6648 242.69 81.1033 240.886 81.7595C239.086 82.4121 234.174 86.9979 234.174 86.9979C234.174 86.9979 233.518 79.4648 233.027 79.4648C232.536 79.4648 228.441 79.2999 228.441 79.2999C228.441 79.2999 227.132 75.7912 226.641 76.1526C226.15 76.5175 224.35 76.128 224.35 76.128C224.35 76.128 224.185 69.6405 223.529 67.8405C222.876 66.0371 219.273 64.402 219.273 64.402C219.273 64.402 214.196 71.279 214.034 71.7702C213.869 72.2615 215.669 74.3877 215.669 74.3877L220.42 76.1912C220.42 76.1912 218.617 78.9736 218.455 79.7911C218.29 80.6121 215.017 81.5946 215.017 81.5946L213.543 78.8087L208.14 75.3702C208.14 75.3702 203.224 78.3175 203.554 79.2999C203.88 80.2823 205.68 80.9384 205.68 80.9384L204.045 82.7419C204.045 82.7419 195.694 83.3945 193.73 83.3945C191.765 83.3945 182.593 80.9384 181.611 81.1034C180.628 81.2648 179.319 84.5419 179.319 84.5419C179.319 84.5419 173.586 84.8682 172.934 84.7068C172.277 84.5418 159.997 83.3945 160.162 82.9033C160.323 82.4121 161.962 80.7735 161.962 80.7735L161.306 79.2999L148.86 77.8262C148.86 77.8262 147.387 76.1912 145.752 75.2088C144.113 74.2263 133.307 74.2263 133.307 74.2263C133.307 74.2263 131.998 72.4229 130.686 72.0966C129.377 71.7703 115.293 72.7527 115.293 72.7527C115.293 72.7527 108.907 77.0087 107.925 77.1736C106.942 77.335 97.2829 76.3526 97.2829 76.3526C97.2829 76.3526 91.3883 72.2615 89.7497 72.0966C88.1112 71.9317 76.322 70.7878 75.3396 70.458C74.3571 70.1317 70.7572 68.6581 70.7572 68.6581C70.7572 68.6581 67.9713 69.6405 67.4801 69.6405C66.9889 69.6405 65.0241 68.0019 63.7153 67.1844C62.4031 66.3669 47.014 65.2196 45.7017 65.8757C44.393 66.5283 40.7896 68.3317 40.7896 68.3317C40.7896 68.3317 32.7652 71.1141 32.1126 71.1141C31.4565 71.1141 30.1478 75.3702 28.6741 75.8614C27.2005 76.3526 21.3059 76.6824 21.141 77.335C20.9761 77.9912 20.1585 80.4472 20.1585 80.4472C20.1585 80.4472 24.9058 83.2331 25.2356 83.8857C25.5619 84.5419 24.7444 86.9979 25.8882 87.4892C27.0356 87.9804 23.1058 88.9628 22.2883 88.7979C21.4673 88.6365 16.5551 90.4364 16.5551 90.4364C16.5551 90.4364 13.4464 93.875 13.2815 94.5311C13.1166 95.1837 13.2815 96.4959 13.2815 96.4959C13.2815 96.4959 23.762 96.331 23.762 97.3135C23.762 98.2959 23.2707 101.078 23.2707 101.078C23.2707 101.078 16.5551 103.534 16.2288 104.517C15.9025 105.499 9.5132 110.415 9.1869 111.232C8.86059 112.05 9.02199 120.565 10.0044 121.222C10.9904 121.874 12.2991 122.695 12.2991 122.695C12.2991 122.695 12.2991 125.478 12.464 126.134C12.6254 126.786 23.762 127.607 23.762 127.607C23.762 127.607 24.2532 132.028 23.2707 132.355C22.2883 132.681 14.9201 135.793 12.7903 136.284C10.6605 136.776 0.509928 145.291 0.509928 145.291C0.509928 145.291 -0.63741 146.274 0.509928 146.439C1.65376 146.6 10.6605 141.526 11.1517 141.526C11.643 141.526 18.0288 141.197 20.3234 141.035C22.6146 140.87 29.4916 135.141 30.4741 134.155C31.4565 133.172 33.7477 129.081 33.7477 129.081C33.7477 129.081 38.0072 127.442 39.151 126.951C40.2984 126.46 41.6071 123.678 41.6071 123.678L48.3227 114.671C48.3227 114.671 51.5963 115.818 51.1051 116.309C50.6139 116.801 43.9018 122.53 44.393 122.857C44.8842 123.186 42.9194 125.969 43.9018 125.643C44.8842 125.313 51.27 121.874 52.5788 121.874C53.891 121.874 55.691 121.548 55.691 121.548C55.691 121.548 57.6558 118.274 58.312 118.274C58.9646 118.274 61.5856 121.222 62.2417 121.383C62.8943 121.548 77.1431 121.057 78.6167 121.548C80.0903 122.039 83.0376 125.151 83.0376 125.151C83.0376 125.151 88.2761 125.478 89.5848 125.478C90.8971 125.478 92.8619 128.099 92.8619 128.099C92.8619 128.099 97.6092 140.053 98.7565 141.688C99.9039 143.326 101.539 159.371 102.03 160.028C102.521 160.684 104.816 161.175 105.798 161.992C106.781 162.81 107.925 167.07 108.581 167.396C109.237 167.726 111.363 171.164 111.363 171.164C111.363 171.164 107.925 174.603 107.272 175.094C106.616 175.585 107.107 190.974 106.29 192.122C105.469 193.269 102.36 196.216 102.36 197.199C102.36 198.181 101.539 210.626 102.03 213.574C102.521 216.521 108.09 231.584 109.728 231.749C111.363 231.913 112.675 231.422 113.819 233.057C114.209 233.615 114.486 234.819 114.76 236.219L135.359 237.619L145.966 235.338L154.348 237.619L159.225 241.019L173.811 237.619H184.421L196.354 241.019L204.536 248.124C204.536 248.124 213.052 248.124 214.196 248.941C215.343 249.759 218.617 261.06 219.438 262.043C220.255 263.025 224.185 266.299 224.511 265.642C224.841 264.99 226.641 261.06 226.641 261.06C226.641 261.06 225.002 250.088 225.002 249.432C225.002 248.776 225.659 244.685 225.332 243.703C225.002 242.72 235.648 234.531 237.121 233.549C238.595 232.566 240.725 229.949 240.725 229.949C240.725 229.949 243.342 220.286 244.163 219.794C244.981 219.303 252.349 209.314 253.331 208.988C254.314 208.661 259.391 205.876 260.373 205.223C261.356 204.567 261.682 201.784 262.338 200.802C262.991 199.82 268.559 195.725 268.559 195.725C268.559 195.725 273.801 196.216 274.619 195.725C275.436 195.234 279.04 195.725 279.04 195.725L288.208 189.992C288.208 189.992 280.84 183.445 279.857 183.606C278.875 183.771 278.713 177.711 279.205 176.894C279.696 176.076 281.169 173.455 281.169 173.455C281.169 173.455 281.004 170.673 281.661 170.343C282.313 170.017 289.681 169.199 289.681 169.199C289.681 169.199 293.615 170.343 294.597 170.343C295.58 170.343 308.677 160.845 308.677 160.845C308.677 160.845 308.351 155.28 308.677 154.789C309.004 154.298 305.239 152.659 305.239 152.659Z" fill="#F44A45"/>
</g>
</svg>
